<?xml version="1.0" encoding="utf-8"?>
<!-- Svg Vector Icons : http://www.onlinewebfonts.com/icon -->
<!DOCTYPE svg PUBLIC "-//W3C//DTD SVG 1.1//EN" "http://www.w3.org/Graphics/SVG/1.1/DTD/svg11.dtd">
<svg version="1.1" xmlns="http://www.w3.org/2000/svg" xmlns:xlink="http://www.w3.org/1999/xlink" x="0px" y="0px" viewBox="0 0 256 256" enable-background="new 0 0 256 256" xml:space="preserve">
<metadata> Svg Vector Icons : http://www.onlinewebfonts.com/icon </metadata>
<g><g><path fill="#000000" d="M112.6,61.5c0-27.2,22-49.2,49.1-49.2c27.1,0,49.2,22,49.2,49.2c0,27.1-22,49.2-49.2,49.2C134.6,110.7,112.6,88.7,112.6,61.5L112.6,61.5L112.6,61.5z M182.6,115.7h-41.7c-17.1,0-32.6,3.7-44,15h66.8v101h-32.5c8.2,4,8.2,4.6,8.2,6.9c0,0.9,0,2.2-0.8,3.2c10.2,1.1,19.8,1.8,28.6,1.8c46.3,0,73.1-13,74.7-13.8l3.3-1.5h0.8V177C246,142.3,217.3,115.7,182.6,115.7L182.6,115.7L182.6,115.7z M131.8,239.1c0,2.5-20.3,4.5-45.7,4.5c-25.4,0-46-2-46-4.5c0-1.8,11.1-3.3,26-4v-6.8H10v-93.6h146.5v93.5H99.8v6.6C118.8,235.5,131.8,237.1,131.8,239.1L131.8,239.1L131.8,239.1z M145.3,220.5v-78.6h-124v78.6H145.3L145.3,220.5z M43.4,213.3h10.4v-44.9H43.4V213.3L43.4,213.3z M58.9,213.3h7.2v-33.7h-7.2L58.9,213.3L58.9,213.3z M69.9,213.3h10.4v-56.1H69.9V213.3L69.9,213.3z M109,213.3h10.4v-44.9H109V213.3L109,213.3z M96.3,213.3h7.5v-33.7h-7.5V213.3L96.3,213.3z M85.4,213.3h7.2v-48.9h-7.2V213.3L85.4,213.3z"/></g></g>
</svg>